<?xml version="1.0" standalone="no"?>
<!DOCTYPE svg PUBLIC "-//W3C//DTD SVG 20010904//EN"
 "http://www.w3.org/TR/2001/REC-SVG-20010904/DTD/svg10.dtd">
<svg version="1.0" xmlns="http://www.w3.org/2000/svg"
 width="512.000000pt" height="512.000000pt" viewBox="0 0 512.000000 512.000000"
 preserveAspectRatio="xMidYMid meet">
<metadata>
Created by potrace 1.11, written by Peter Selinger 2001-2013
</metadata>
<g transform="translate(0.000000,512.000000) scale(0.100000,-0.100000)"
fill="#000000" stroke="none">
<path d="M1869 5109 c-552 -82 -984 -488 -1095 -1029 -25 -120 -25 -354 0
-466 4 -18 -5 -23 -72 -43 -259 -76 -477 -260 -600 -506 -50 -102 -60 -130
-87 -265 -13 -65 -14 -288 0 -340 3 -14 8 -36 11 -50 18 -95 83 -238 154 -339
156 -221 400 -369 670 -407 30 -4 390 -8 800 -9 410 -2 746 -3 747 -4 2 0 -5
-9 -15 -19 -9 -10 -55 -59 -101 -108 -46 -49 -114 -121 -150 -159 -36 -39 -97
-105 -136 -146 -38 -41 -128 -137 -200 -214 -71 -76 -141 -150 -155 -165 -14
-15 -40 -43 -59 -63 l-34 -36 44 -42 c24 -22 72 -68 107 -100 34 -32 64 -59
67 -59 3 0 31 28 63 62 71 76 96 103 236 252 61 65 126 135 145 155 130 140
290 310 367 391 50 52 125 131 166 175 l76 80 714 1 c392 1 722 4 733 7 11 2
40 8 65 12 58 9 181 50 245 82 241 121 428 344 504 601 29 96 35 145 36 272 0
175 -25 285 -99 435 -94 190 -246 346 -425 436 -36 18 -68 35 -70 36 -2 2 -6
33 -8 70 -29 538 -445 979 -992 1052 -65 8 -233 7 -286 -3 -16 -3 -48 -8 -70
-12 -22 -3 -44 -8 -49 -11 -4 -3 -23 -7 -40 -10 -28 -4 -37 1 -62 34 -79 105
-244 239 -381 311 -195 101 -353 142 -568 147 -77 1 -165 -1 -196 -6z"/>
<path d="M900 1051 l0 -300 150 0 150 0 0 300 0 299 -150 0 -150 0 0 -299z"/>
<path d="M3210 1050 l0 -300 150 1 150 0 0 300 0 299 -150 0 -150 0 0 -300z"/>
<path d="M4559 1348 c-3 -9 -4 -575 -1 -586 3 -9 41 -12 148 -11 79 0 145 3
146 7 0 4 2 139 3 300 l2 292 -148 0 c-82 0 -149 -1 -150 -2z"/>
<path d="M200 300 l0 -300 150 0 150 0 0 300 0 300 -150 0 -150 0 0 -300z"/>
<path d="M2560 300 l0 -300 150 0 150 0 0 300 0 300 -150 0 -150 0 0 -300z"/>
<path d="M3910 595 c-1 -3 -1 -88 -1 -190 0 -102 0 -234 1 -294 l0 -110 149 0
149 -1 0 300 1 300 -150 0 c-82 0 -149 -2 -149 -5z"/>
</g>
</svg>
